<svg fill="none" viewBox="0 0 32 32" xmlns="http://www.w3.org/2000/svg" xmlns:xlink="http://www.w3.org/1999/xlink"><linearGradient id="a" gradientUnits="userSpaceOnUse" x1="16" x2="16" y1="1" y2="31"><stop offset="0" stop-color="#534bb1"/><stop offset="1" stop-color="#551bf9"/></linearGradient><linearGradient id="b" gradientUnits="userSpaceOnUse" x1="16.3505" x2="16.3505" y1="6.39062" y2="26.3125"><stop offset="0" stop-color="#fff"/><stop offset="1" stop-color="#fff" stop-opacity=".82"/></linearGradient><clipPath id="c"><path d="m1 1h30v30h-30z"/></clipPath><g clip-path="url(#c)"><path d="m16 31c8.2843 0 15-6.7157 15-15 0-8.28427-6.7157-15-15-15-8.28427 0-15 6.71573-15 15 0 8.2843 6.71573 15 15 15z" fill="url(#a)"/><path d="m26.9171 16.2143h-2.6817c0-5.4256-4.4459-9.82368-9.9304-9.82368-5.41667 0-9.82048 4.29038-9.92825 9.62308-.11151 5.5122 5.11622 10.2988 10.68905 10.2988h.701c4.9132 0 11.4984-3.8047 12.5273-8.4405.19-.8545-.4925-1.6577-1.377-1.6577zm-16.5973.2417c0 .7255-.59984 1.3189-1.33327 1.3189s-1.33326-.5937-1.33326-1.3189v-2.1338c0-.7256.59983-1.3189 1.33326-1.3189s1.33327.5933 1.33327 1.3189zm4.6297 0c0 .7255-.5998 1.3189-1.3332 1.3189s-1.3333-.5937-1.3333-1.3189v-2.1338c0-.7256.6001-1.3189 1.3333-1.3189.7334 0 1.3332.5933 1.3332 1.3189z" fill="url(#b)"/></g></svg>